Coordinates
version=1
nRows=26
nColumns=24
inDegrees=yes

Units are S.I. units (second, meters, Newtons, ...)
Angles are in degrees.

endheader
time	pelvis_tilt	pelvis_list	pelvis_rotation	pelvis_tx	pelvis_ty	pelvis_tz	hip_flexion_r	hip_adduction_r	hip_rotation_r	knee_angle_r	ankle_angle_r	subtalar_angle_r	mtp_angle_r	hip_flexion_l	hip_adduction_l	hip_rotation_l	knee_angle_l	ankle_angle_l	subtalar_angle_l	mtp_angle_l	lumbar_extension	lumbar_bending	lumbar_rotation
      5.24000000	     -8.63954991	     -8.33408552	      4.12417221	     -0.74908977	     -0.01439248	      2.06243074	      5.23988856	     14.08018376	    -11.18392172	     -6.85661486	      2.72290218	     -2.97354172	     13.02358271	     36.06765951	     -5.89615418	      3.17703815	    -49.46165369	     -5.09427789	     -7.65075244	     34.69194374	      4.62844870	      7.48246275	     -1.74009349
      5.25000000	     -8.92241063	     -8.01675525	      3.87991919	     -0.73701621	     -0.01517144	      2.06331216	      4.38255541	     13.91050954	    -11.01741708	     -6.31468253	      3.13523716	     -2.71828877	     13.03951459	     36.91457213	     -5.51827425	      2.50218762	    -46.67822893	     -4.54344468	     -7.00302754	     34.41014503	      4.76371091	      7.14430613	     -1.34840508
      5.26000000	     -8.95166968	     -7.64782981	      3.76965123	     -0.72486196	     -0.01584171	      2.06392785	      3.22256989	     13.68576113	    -10.95670157	     -5.70493087	      3.54397621	     -2.49081229	     12.99651675	     37.34589878	     -5.06942377	      1.77113419	    -43.65193027	     -3.99724291	     -6.16983989	     33.41645736	      4.64505467	      6.76791120	     -1.06962354
      5.27000000	     -9.23777770	     -7.41500958	      3.61491079	     -0.71272013	     -0.01707416	      2.06447986	      2.41332498	     13.57087290	    -10.93655284	     -5.21420141	      3.99242426	     -2.21416234	     13.01930986	     37.98532353	     -4.77367199	      1.01363956	    -40.47149932	     -3.57678246	     -5.02867282	     33.24266137	      4.80839732	      6.52869756	     -0.74352716
      5.28000000	     -9.36986984	     -7.14437750	      3.49684685	     -0.70055740	     -0.01824689	      2.06491029	      1.46226180	     13.41057686	    -11.02519019	     -4.77179410	      4.43304280	     -1.88481402	     12.98348489	     38.29381458	     -4.46509103	      0.11273333	    -37.05651410	     -3.31156167	     -3.74973532	     32.94320330	      4.79398471	      6.26208737	     -0.43834008
      5.29000000	     -9.50629004	     -6.90916355	      3.43855488	     -0.68827710	     -0.01961510	      2.06512049	      0.54760810	     13.26494798	    -11.12379554	     -4.39778509	      4.88901822	     -1.54267366	     12.89769675	     38.48478731	     -4.14709843	     -0.79641924	    -33.50478823	     -3.16063014	     -2.33643551	     32.68057010	      4.80894491	      6.03851923	     -0.24262036
      5.30000000	     -9.58009740	     -6.67093021	      3.41695596	     -0.67589677	     -0.02104582	      2.06516124	     -0.38229575	     13.09548066	    -11.28721826	     -4.13761114	      5.36883464	     -1.15220040	     12.73727021	     38.47567610	     -3.79431130	     -1.72737693	    -29.85364858	     -3.09553906	     -0.90943045	     32.41183263	      4.76341368	      5.82095396	     -0.07638708
      5.31000000	     -9.58572189	     -6.42927174	      3.44070538	     -0.66338173	     -0.02252327	      2.06501769	     -1.32173634	     12.89602350	    -11.53164887	     -4.01632897	      5.88574657	     -0.67452584	     12.49781460	     38.28190475	     -3.38353028	     -2.59980453	    -26.18353565	     -3.04552829	      0.41470565	     32.10126916	      4.65824551	      5.60836107	      0.04265099
      5.32000000	     -9.45200558	     -6.15891120	      3.58399760	     -0.65070968	     -0.02396141	      2.06458547	     -2.34111772	     12.63864822	    -11.92160640	     -4.04541415	      6.48833468	     -0.06515909	     11.97144975	     37.84808467	     -2.82737216	     -3.21684761	    -22.56616062	     -2.97239180	      1.45693493	     31.48458248	      4.42415966	      5.36907465	      0.05951775
      5.33000000	     -9.47913270	     -5.94792668	      3.54565627	     -0.63794268	     -0.02560765	      2.06426341	     -3.06656579	     12.38971157	    -12.25288721	     -4.33239148	      7.05641302	      0.66120065	     11.74230251	     37.55215310	     -2.42072641	     -3.96471788	    -19.15783195	     -2.78250861	      2.42157338	     30.96119236	      4.35828718	      5.21364358	      0.18145636
      5.34000000	     -9.31294874	     -5.66478779	      3.66256278	     -0.62500268	     -0.02707842	      2.06356431	     -3.93054922	     12.03199219	    -12.68414639	     -4.78519391	      7.76913823	      1.49657780	     10.51841739	     37.00453990	     -1.79789006	     -4.25472195	    -16.02099068	     -2.35380528	      3.02519519	     28.38267999	      4.10481823	      4.99101101	      0.14456882
      5.35000000	     -9.30234808	     -5.40867741	      3.59326696	     -0.61190554	     -0.02866875	      2.06307146	     -4.51714278	     11.63492118	    -13.10942295	     -5.46822743	      8.31631639	      2.50190031	     10.56511314	     36.59749633	     -1.33778266	     -4.78458389	    -13.13825685	     -2.16706075	      3.61184696	     27.87982831	      4.02782219	      4.79841698	      0.28273249
      5.36000000	     -9.18753764	     -5.09714409	      3.54574419	     -0.59859378	     -0.03008886	      2.06237978	     -5.16141855	     11.12756589	    -13.55244137	     -6.29047815	      8.81181947	      3.62154918	     10.63368028	     36.05397948	     -0.79499270	     -5.13222377	    -10.63065905	     -2.02456165	      3.92630692	     26.97697491	      3.85535228	      4.56218205	      0.36023840
      5.37000000	     -9.04625920	     -4.78724598	      3.53313474	     -0.58502005	     -0.03145308	      2.06160710	     -5.80506501	     10.60033030	    -13.88900239	     -7.18434123	      9.15164126	      4.58414651	     10.52503260	     35.54930953	     -0.23488554	     -5.25579874	     -8.80658195	     -1.36320700	      4.37779834	     23.38486033	      3.68965500	      4.31357189	      0.36353480
      5.38000000	     -9.07186421	     -4.56463652	      3.40007704	     -0.57116463	     -0.03298720	      2.06093230	     -6.18934936	     10.08737413	    -14.21405736	     -8.27059213	      9.44160144	      5.83554552	     10.68054125	     35.30786912	      0.14297008	     -5.63835817	     -7.55576233	     -1.03753375	      4.90894262	     22.87607185	      3.73789924	      4.15149093	      0.38825234
      5.39000000	     -9.08298912	     -4.36370681	      3.17805264	     -0.55696591	     -0.03444167	      2.06035742	     -6.55779506	      9.55858520	    -14.37035481	     -9.44262558	      9.52843158	      7.04454235	     10.89074212	     35.12801671	      0.42868699	     -5.93074196	     -7.02084635	     -0.62859072	      5.27723438	     22.36872806	      3.80876693	      4.01021932	      0.52613472
      5.40000000	     -9.11574752	     -4.14767031	      2.96654751	     -0.54234456	     -0.03592964	      2.05989054	     -6.86709843	      8.99357357	    -14.43372559	    -10.70754087	      9.45899260	      8.16670931	     11.24641405	     35.06274882	      0.69692199	     -6.09507190	     -7.22185575	     -0.20588241	      5.52500427	     21.99009676	      3.95834448	      3.81377955	      0.61253502
      5.41000000	     -9.17830200	     -3.94857539	      2.66792138	     -0.52728812	     -0.03744761	      2.05954471	     -7.09717930	      8.41138308	    -14.32674511	    -12.08414049	      9.20060745	      9.23448739	     11.64036952	     35.08597423	      0.87563485	     -6.10343700	     -8.05564704	      0.10557573	      5.38331264	     21.94200690	      4.19592647	      3.62903248	      0.80166006
      5.42000000	     -9.13983276	     -3.77248882	      2.55103510	     -0.51195704	     -0.03894833	      2.05893211	     -7.38730770	      7.82389338	    -14.49687981	    -13.52381621	      8.64075057	     10.46380702	     13.04678993	     35.05109594	      1.12766156	     -5.69780086	     -9.35660286	      0.07195363	      4.71562477	     21.83716890	      4.37126440	      3.44783632	      0.77270852
      5.43000000	     -9.15007646	     -3.43881126	      2.30743528	     -0.49630772	     -0.04029027	      2.05850616	     -7.53834008	      7.03237663	    -14.49164399	    -15.07984344	      7.57669400	     11.40198554	     16.46524987	     34.97503079	      1.43926475	     -5.37639813	    -10.79459602	     -0.38946575	      3.69575281	     20.96234592	      4.62278383	      3.09485244	      0.92213051
      5.44000000	     -9.18257556	     -3.00955830	      2.28317772	     -0.48051796	     -0.04146454	      2.05763585	     -7.54970453	      6.07249389	    -14.86563437	    -16.86384141	      6.50358368	     12.72907004	     18.53013525	     34.88164721	      1.98622341	     -4.78589628	    -12.22519029	     -1.33602648	      2.25389068	     18.85163057	      4.92442400	      2.63053956	      0.83918506
      5.45000000	     -9.28359429	     -2.41359830	      2.41200626	     -0.46483924	     -0.04240034	      2.05666110	     -7.33514232	      4.89108399	    -15.50898576	    -18.85040225	      4.97736255	     13.98891546	     21.67939764	     34.88967649	      2.75599780	     -4.14688381	    -13.66790489	     -2.47834622	      0.82123474	     15.44644560	      5.26860145	      1.93972487	      0.65588432
      5.46000000	     -9.50533058	     -1.74371633	      2.65202222	     -0.44932263	     -0.04308958	      2.05558604	     -6.84128482	      3.56416922	    -16.35902007	    -20.99970542	      2.78844529	     15.21585905	     25.52713451	     35.14079487	      3.62124215	     -3.67011201	    -15.19312022	     -3.81343551	     -0.39991154	     12.82808882	      5.70750037	      1.14762217	      0.35384529
      5.47000000	     -9.79949156	     -1.06739724	      2.94563842	     -0.43391736	     -0.04358347	      2.05462421	     -6.12118314	      2.17110055	    -17.33236776	    -23.26441556	     -0.25331473	     16.21233283	     30.20149360	     35.62848321	      4.46360054	     -3.41339717	    -16.93897875	     -5.15747068	     -1.20402859	     12.10955597	      6.19384879	      0.31397171	      0.12082251
      5.48000000	    -10.06175696	     -0.43947815	      3.20573716	     -0.41857703	     -0.04388159	      2.05377789	     -5.27199491	      0.77660264	    -18.19145249	    -25.60915863	     -4.21883436	     16.83782050	     35.77875201	     36.16167253	      5.21629081	     -3.27866808	    -18.83387822	     -6.41800317	     -1.83428031	     13.27806609	      6.62326567	     -0.46396134	     -0.05392165
      5.49000000	    -10.23226533	      0.11051155	      3.39304904	     -0.40332638	     -0.04395735	      2.05296423	     -4.33882618	     -0.56295081	    -18.78658807	    -27.99813553	     -9.05769895	     16.92364746	     41.80553037	     36.53245251	      5.87988900	     -3.08274258	    -20.65291355	     -7.54949402	     -2.63816923	     15.60867543	      6.93298214	     -1.12666994	     -0.10033729
